<svg xmlns="http://www.w3.org/2000/svg" xmlns:xlink="http://www.w3.org/1999/xlink" width="32" height="32" id="briefcase">
  <defs>
    <linearGradient id="a">
      <stop offset="0" stop-color="#24f7bc"></stop>
      <stop offset="1" stop-color="#24c4fc"></stop>
    </linearGradient>
    <linearGradient xlink:href="#a" id="b" x1="949.87" x2="974.39" y1="518.014" y2="544.657" gradientTransform="translate(-978.568 499.682)scale(1.02524)" gradientUnits="userSpaceOnUse"></linearGradient>
  </defs>
  <g fill="#fff" transform="translate(9 -1028.362)">
    <rect width="32" height="32" x="-9" y="1028.362" fill="url(#b)" rx="6.763" ry="6.763"></rect>
    <path d="m5.498.99-.5.5v2.518H0v8c0 1.041.114 1.821.646 2.353.533.533 1.312.647 2.354.647h10c1.042 0 1.821-.114 2.354-.647.532-.532.646-1.312.646-2.353v-8h-4.998V1.49l-.5-.5H5.498zm.5 1h4.004v2.018H5.998V1.99zM1 5.008h14V8.01h-5v-1H6v1H1V5.008zM7 8.01h2v1H7v-1zm-6 1h5v1h4v-1h5v2.998c0 .958-.136 1.428-.354 1.646-.217.218-.688.354-1.646.354H3c-.958 0-1.429-.136-1.646-.354-.218-.218-.354-.688-.354-1.646V9.01z" color="#000" font-family="sans-serif" font-weight="400" overflow="visible" style="text-indent:0;text-align:start;line-height:normal;text-transform:none;block-progression:tb" transform="translate(-1 1036.363)"></path>
  </g>
</svg>
